<mxfile host="app.diagrams.net" agent="Mozilla/5.0 (X11; Ubuntu; Linux x86_64; rv:135.0) Gecko/20100101 Firefox/135.0" version="26.0.14">
  <diagram name="Page-1" id="b5b7bab2-c9e2-2cf4-8b2a-24fd1a2a6d21">
    <mxGraphModel dx="1083" dy="548" grid="1" gridSize="10" guides="1" tooltips="1" connect="1" arrows="1" fold="1" page="1" pageScale="1" pageWidth="827" pageHeight="1169" background="none" math="0" shadow="0">
      <root>
        <mxCell id="0" />
        <mxCell id="1" parent="0" />
        <mxCell id="qgA-m_F3gZTn61-g0aTW-1" value="Component diagram - IoT system" style="shape=umlFrame;whiteSpace=wrap;html=1;pointerEvents=0;width=240;height=30;" vertex="1" parent="1">
          <mxGeometry x="40" y="40" width="760" height="480" as="geometry" />
        </mxCell>
        <mxCell id="qgA-m_F3gZTn61-g0aTW-19" value="&lt;div&gt;&lt;span style=&quot;font-weight: normal;&quot;&gt;«subsystem»&lt;/span&gt; &lt;b&gt;Edge node &lt;br&gt;&lt;/b&gt;&lt;/div&gt;" style="swimlane;whiteSpace=wrap;html=1;startSize=30;" vertex="1" parent="1">
          <mxGeometry x="70" y="110" width="210" height="300" as="geometry" />
        </mxCell>
        <mxCell id="qgA-m_F3gZTn61-g0aTW-15" value="" style="shape=module;jettyWidth=8;jettyHeight=4;" vertex="1" parent="qgA-m_F3gZTn61-g0aTW-19">
          <mxGeometry x="1" width="20" height="20" relative="1" as="geometry">
            <mxPoint x="-29" y="5" as="offset" />
          </mxGeometry>
        </mxCell>
        <mxCell id="qgA-m_F3gZTn61-g0aTW-21" value="&lt;br&gt;&lt;b&gt;: Camera 1&lt;/b&gt;" style="html=1;dropTarget=0;whiteSpace=wrap;" vertex="1" parent="qgA-m_F3gZTn61-g0aTW-19">
          <mxGeometry x="45" y="50" width="120" height="50" as="geometry" />
        </mxCell>
        <mxCell id="qgA-m_F3gZTn61-g0aTW-22" value="" style="shape=module;jettyWidth=8;jettyHeight=4;" vertex="1" parent="qgA-m_F3gZTn61-g0aTW-21">
          <mxGeometry x="1" width="20" height="20" relative="1" as="geometry">
            <mxPoint x="-27" y="7" as="offset" />
          </mxGeometry>
        </mxCell>
        <mxCell id="qgA-m_F3gZTn61-g0aTW-23" value="&lt;br&gt;&lt;b&gt;: Camera 2&lt;/b&gt;" style="html=1;dropTarget=0;whiteSpace=wrap;" vertex="1" parent="qgA-m_F3gZTn61-g0aTW-19">
          <mxGeometry x="45" y="110" width="120" height="50" as="geometry" />
        </mxCell>
        <mxCell id="qgA-m_F3gZTn61-g0aTW-24" value="" style="shape=module;jettyWidth=8;jettyHeight=4;" vertex="1" parent="qgA-m_F3gZTn61-g0aTW-23">
          <mxGeometry x="1" width="20" height="20" relative="1" as="geometry">
            <mxPoint x="-27" y="7" as="offset" />
          </mxGeometry>
        </mxCell>
        <mxCell id="qgA-m_F3gZTn61-g0aTW-25" value="&lt;br&gt;&lt;b&gt;: Camera N&lt;/b&gt;" style="html=1;dropTarget=0;whiteSpace=wrap;" vertex="1" parent="qgA-m_F3gZTn61-g0aTW-19">
          <mxGeometry x="45" y="230" width="120" height="50" as="geometry" />
        </mxCell>
        <mxCell id="qgA-m_F3gZTn61-g0aTW-26" value="" style="shape=module;jettyWidth=8;jettyHeight=4;" vertex="1" parent="qgA-m_F3gZTn61-g0aTW-25">
          <mxGeometry x="1" width="20" height="20" relative="1" as="geometry">
            <mxPoint x="-27" y="7" as="offset" />
          </mxGeometry>
        </mxCell>
        <mxCell id="qgA-m_F3gZTn61-g0aTW-27" value="&lt;br&gt;&lt;b&gt;: Camera ...&lt;/b&gt;" style="html=1;dropTarget=0;whiteSpace=wrap;" vertex="1" parent="qgA-m_F3gZTn61-g0aTW-19">
          <mxGeometry x="45" y="170" width="120" height="50" as="geometry" />
        </mxCell>
        <mxCell id="qgA-m_F3gZTn61-g0aTW-28" value="" style="shape=module;jettyWidth=8;jettyHeight=4;" vertex="1" parent="qgA-m_F3gZTn61-g0aTW-27">
          <mxGeometry x="1" width="20" height="20" relative="1" as="geometry">
            <mxPoint x="-27" y="7" as="offset" />
          </mxGeometry>
        </mxCell>
        <mxCell id="qgA-m_F3gZTn61-g0aTW-39" value="&lt;div&gt;&lt;span style=&quot;font-weight: normal;&quot;&gt;«subsystem»&lt;/span&gt;&lt;b&gt; HiveMQ&lt;/b&gt;&lt;/div&gt;&lt;div&gt;&lt;b&gt;Cloud &lt;br&gt;&lt;/b&gt;&lt;/div&gt;" style="swimlane;whiteSpace=wrap;html=1;startSize=30;" vertex="1" parent="1">
          <mxGeometry x="320" y="210" width="190" height="100" as="geometry" />
        </mxCell>
        <mxCell id="qgA-m_F3gZTn61-g0aTW-40" value="" style="shape=module;jettyWidth=8;jettyHeight=4;" vertex="1" parent="qgA-m_F3gZTn61-g0aTW-39">
          <mxGeometry x="1" width="20" height="20" relative="1" as="geometry">
            <mxPoint x="-29" y="5" as="offset" />
          </mxGeometry>
        </mxCell>
        <mxCell id="qgA-m_F3gZTn61-g0aTW-41" value="&lt;br&gt;&lt;b&gt;: MQTT Broker&lt;/b&gt;" style="html=1;dropTarget=0;whiteSpace=wrap;" vertex="1" parent="qgA-m_F3gZTn61-g0aTW-39">
          <mxGeometry x="10" y="40" width="170" height="50" as="geometry" />
        </mxCell>
        <mxCell id="qgA-m_F3gZTn61-g0aTW-42" value="" style="shape=module;jettyWidth=8;jettyHeight=4;" vertex="1" parent="qgA-m_F3gZTn61-g0aTW-41">
          <mxGeometry x="1" width="20" height="20" relative="1" as="geometry">
            <mxPoint x="-27" y="7" as="offset" />
          </mxGeometry>
        </mxCell>
        <mxCell id="qgA-m_F3gZTn61-g0aTW-53" value="&lt;div&gt;&lt;span style=&quot;font-weight: normal;&quot;&gt;«subsystem»&lt;/span&gt; &lt;b&gt;Server &lt;br&gt;&lt;/b&gt;&lt;/div&gt;" style="swimlane;whiteSpace=wrap;html=1;startSize=30;" vertex="1" parent="1">
          <mxGeometry x="560" y="80" width="210" height="300" as="geometry" />
        </mxCell>
        <mxCell id="qgA-m_F3gZTn61-g0aTW-54" value="" style="shape=module;jettyWidth=8;jettyHeight=4;" vertex="1" parent="qgA-m_F3gZTn61-g0aTW-53">
          <mxGeometry x="1" width="20" height="20" relative="1" as="geometry">
            <mxPoint x="-29" y="5" as="offset" />
          </mxGeometry>
        </mxCell>
        <mxCell id="qgA-m_F3gZTn61-g0aTW-55" value="&lt;br&gt;&lt;b&gt;: Camera 1&lt;/b&gt;" style="html=1;dropTarget=0;whiteSpace=wrap;" vertex="1" parent="qgA-m_F3gZTn61-g0aTW-53">
          <mxGeometry x="45" y="50" width="120" height="50" as="geometry" />
        </mxCell>
        <mxCell id="qgA-m_F3gZTn61-g0aTW-56" value="" style="shape=module;jettyWidth=8;jettyHeight=4;" vertex="1" parent="qgA-m_F3gZTn61-g0aTW-55">
          <mxGeometry x="1" width="20" height="20" relative="1" as="geometry">
            <mxPoint x="-27" y="7" as="offset" />
          </mxGeometry>
        </mxCell>
        <mxCell id="qgA-m_F3gZTn61-g0aTW-57" value="&lt;br&gt;&lt;b&gt;: Camera 2&lt;/b&gt;" style="html=1;dropTarget=0;whiteSpace=wrap;" vertex="1" parent="qgA-m_F3gZTn61-g0aTW-53">
          <mxGeometry x="45" y="110" width="120" height="50" as="geometry" />
        </mxCell>
        <mxCell id="qgA-m_F3gZTn61-g0aTW-58" value="" style="shape=module;jettyWidth=8;jettyHeight=4;" vertex="1" parent="qgA-m_F3gZTn61-g0aTW-57">
          <mxGeometry x="1" width="20" height="20" relative="1" as="geometry">
            <mxPoint x="-27" y="7" as="offset" />
          </mxGeometry>
        </mxCell>
        <mxCell id="qgA-m_F3gZTn61-g0aTW-59" value="&lt;br&gt;&lt;b&gt;: Camera N&lt;/b&gt;" style="html=1;dropTarget=0;whiteSpace=wrap;" vertex="1" parent="qgA-m_F3gZTn61-g0aTW-53">
          <mxGeometry x="45" y="230" width="120" height="50" as="geometry" />
        </mxCell>
        <mxCell id="qgA-m_F3gZTn61-g0aTW-60" value="" style="shape=module;jettyWidth=8;jettyHeight=4;" vertex="1" parent="qgA-m_F3gZTn61-g0aTW-59">
          <mxGeometry x="1" width="20" height="20" relative="1" as="geometry">
            <mxPoint x="-27" y="7" as="offset" />
          </mxGeometry>
        </mxCell>
        <mxCell id="qgA-m_F3gZTn61-g0aTW-61" value="&lt;br&gt;&lt;b&gt;: Camera ...&lt;/b&gt;" style="html=1;dropTarget=0;whiteSpace=wrap;" vertex="1" parent="qgA-m_F3gZTn61-g0aTW-53">
          <mxGeometry x="45" y="170" width="120" height="50" as="geometry" />
        </mxCell>
        <mxCell id="qgA-m_F3gZTn61-g0aTW-62" value="" style="shape=module;jettyWidth=8;jettyHeight=4;" vertex="1" parent="qgA-m_F3gZTn61-g0aTW-61">
          <mxGeometry x="1" width="20" height="20" relative="1" as="geometry">
            <mxPoint x="-27" y="7" as="offset" />
          </mxGeometry>
        </mxCell>
      </root>
    </mxGraphModel>
  </diagram>
</mxfile>
